<?xml version="1.0" encoding="UTF-8" standalone="no"?>
<!DOCTYPE svg PUBLIC "-//W3C//DTD SVG 1.1//EN" "http://www.w3.org/Graphics/SVG/1.1/DTD/svg11.dtd">
<svg width="100%" height="100%" viewBox="0 0 4267 4267" version="1.1" xmlns="http://www.w3.org/2000/svg" xmlns:xlink="http://www.w3.org/1999/xlink" xml:space="preserve" xmlns:serif="http://www.serif.com/" style="fill-rule:evenodd;clip-rule:evenodd;stroke-linecap:round;stroke-linejoin:round;stroke-miterlimit:1.5;">
    <g transform="matrix(1.393738,0,0,1.393738,-994.521179,-850.764183)">
        <g>
            <g transform="matrix(1,0,0,1,-146,-209)">
                <path d="M1021,2524C1021,2524 1167.858,2021.021 1600,1999.333C2037.653,1977.369 2110.667,2239.769 2448,2220C2788.306,2200.057 2791.193,2026.711 2924,1928.333C3146.493,1763.519 3222.699,1890.825 3421.235,1883.333C3575.869,1877.499 3670,1835 3670,1835C3670,1835 3575.869,1919.499 3421.235,1925.333C3222.699,1932.825 3146.493,1805.519 2924,1970.333C2791.193,2068.711 2788.306,2242.057 2448,2262C2110.667,2281.769 2037.653,2019.369 1600,2041.333C1167.858,2063.021 1021,2524 1021,2524Z" style="fill:rgb(82,102,118);stroke:rgb(83,105,122);stroke-width:5.98px;"/>
            </g>
            <g transform="matrix(1,0,0,1,-144,-49)">
                <path d="M1021,2524C1021,2524 1167.858,2021.021 1600,1999.333C2037.653,1977.369 2110.667,2239.769 2448,2220C2788.306,2200.057 2791.193,2026.711 2924,1928.333C3146.493,1763.519 3222.699,1890.825 3421.235,1883.333C3575.869,1877.499 3670,1835 3670,1835C3670,1835 3575.869,1919.499 3421.235,1925.333C3222.699,1932.825 3146.493,1805.519 2924,1970.333C2791.193,2068.711 2788.306,2242.057 2448,2262C2110.667,2281.769 2037.653,2019.369 1600,2041.333C1167.858,2063.021 1021,2524 1021,2524Z" style="fill:rgb(82,102,118);stroke:rgb(83,105,122);stroke-width:5.98px;"/>
            </g>
            <g transform="matrix(1,0,0,1,-128,111)">
                <path d="M1021,2524C1021,2524 1167.858,2021.021 1600,1999.333C2037.653,1977.369 2110.667,2239.769 2448,2220C2788.306,2200.057 2791.193,2026.711 2924,1928.333C3146.493,1763.519 3222.699,1890.825 3421.235,1883.333C3575.869,1877.499 3670,1835 3670,1835C3670,1835 3575.869,1919.499 3421.235,1925.333C3222.699,1932.825 3146.493,1805.519 2924,1970.333C2791.193,2068.711 2788.306,2242.057 2448,2262C2110.667,2281.769 2037.653,2019.369 1600,2041.333C1167.858,2063.021 1021,2524 1021,2524Z" style="fill:rgb(82,102,118);stroke:rgb(83,105,122);stroke-width:5.98px;"/>
            </g>
            <path d="M1051,2305C1051,2305 1272.691,1811.241 1331.998,1675.224C1398.572,1522.542 1512.586,1201.971 1670,1193C1821.381,1184.372 1931.178,1616.233 2026.123,2074.931C2132.524,2588.973 2220.275,3136.72 2327,3136C2524.667,3134.667 2658.814,1708.825 2820,1575C3018.333,1410.333 3093.191,2325.716 3231,2439C3363.455,2547.882 3590,2113 3590,2113C3590,2113 3378.455,2473.882 3246,2365C3108.191,2251.716 3007.333,1261.333 2809,1426C2647.814,1559.825 2523.667,3011.667 2326,3013C2219.275,3013.72 2131.524,2465.973 2025.123,1951.931C1930.178,1493.233 1820.381,1061.372 1669,1070C1511.586,1078.971 1351.572,1532.542 1299.998,1661.224C1244.797,1798.959 1051,2305 1051,2305Z" style="fill:rgb(83,105,122);stroke:rgb(83,105,122);stroke-width:5.98px;"/>
        </g>
        <g>
            <g transform="matrix(1,0,0,1,26,689)">
                <circle cx="2029.5" cy="1579.5" r="72.5" style="fill:rgb(235,74,23);stroke:rgb(235,74,23);stroke-width:5.98px;"/>
            </g>
            <g transform="matrix(1,0,0,1,281,676)">
                <circle cx="2029.5" cy="1579.5" r="72.5" style="fill:rgb(235,74,23);"/>
            </g>
            <g transform="matrix(1,0,0,1,276,480)">
                <circle cx="2029.5" cy="1579.5" r="72.5" style="fill:rgb(235,74,23);"/>
            </g>
            <g transform="matrix(1,0,0,1,292,866)">
                <circle cx="2029.5" cy="1579.5" r="72.5" style="fill:rgb(235,74,23);"/>
            </g>
            <g transform="matrix(1,0,0,1,501,657)">
                <circle cx="2029.5" cy="1579.5" r="72.5" style="fill:rgb(235,74,23);"/>
            </g>
            <g transform="matrix(0.731034,0,0,0.731034,837.365517,1483.331034)">
                <circle cx="2029.5" cy="1579.5" r="72.5" style="fill:rgb(235,74,23);"/>
            </g>
            <g transform="matrix(0.448276,0,0,0.448276,1153.724138,1898.448276)">
                <circle cx="2029.5" cy="1579.5" r="72.5" style="fill:rgb(235,74,23);"/>
            </g>
            <g transform="matrix(0.448276,0,0,0.448276,1633.724138,1884.448276)">
                <circle cx="2029.5" cy="1579.5" r="72.5" style="fill:rgb(235,74,23);"/>
            </g>
            <g transform="matrix(0.448276,0,0,0.448276,1419.724138,2082.448276)">
                <circle cx="2029.5" cy="1579.5" r="72.5" style="fill:rgb(235,74,23);"/>
            </g>
            <g transform="matrix(0.448276,0,0,0.448276,1378.724138,1010.448276)">
                <circle cx="2029.5" cy="1579.5" r="72.5" style="fill:rgb(235,74,23);"/>
            </g>
            <g transform="matrix(0.448276,0,0,0.448276,1133.724138,1222.448276)">
                <circle cx="2029.5" cy="1579.5" r="72.5" style="fill:rgb(235,74,23);"/>
            </g>
            <g transform="matrix(0.448276,0,0,0.448276,1596.724138,1185.448276)">
                <circle cx="2029.5" cy="1579.5" r="72.5" style="fill:rgb(235,74,23);"/>
            </g>
            <g transform="matrix(0.731034,0,0,0.731034,809.365517,721.331034)">
                <circle cx="2029.5" cy="1579.5" r="72.5" style="fill:rgb(235,74,23);"/>
            </g>
            <g transform="matrix(0.731034,0,0,0.731034,567.365517,1304.331034)">
                <circle cx="2029.5" cy="1579.5" r="72.5" style="fill:rgb(235,74,23);"/>
            </g>
            <g transform="matrix(0.731034,0,0,0.731034,1062.365517,1282.331034)">
                <circle cx="2029.5" cy="1579.5" r="72.5" style="fill:rgb(235,74,23);"/>
            </g>
            <g transform="matrix(0.731034,0,0,0.731034,561.365517,923.331034)">
                <circle cx="2029.5" cy="1579.5" r="72.5" style="fill:rgb(235,74,23);"/>
            </g>
            <g transform="matrix(0.731034,0,0,0.731034,1038.365517,889.331034)">
                <circle cx="2029.5" cy="1579.5" r="72.5" style="fill:rgb(235,74,23);"/>
            </g>
            <path d="M2933,1865L1582,2299" style="fill:none;stroke:rgb(235,74,23);stroke-width:38.86px;"/>
            <g transform="matrix(1,0,0,1,59,235)">
                <path d="M2933,1865L1582,2299" style="fill:none;stroke:rgb(235,74,23);stroke-width:38.86px;"/>
            </g>
            <g transform="matrix(1,0,0,1,76,415)">
                <path d="M2933,1865L1582,2299" style="fill:none;stroke:rgb(235,74,23);stroke-width:38.86px;"/>
            </g>
        </g>
    </g>
</svg>
